<svg width="75" height="75" viewBox="0 0 22 24" fill="none" xmlns="http://www.w3.org/2000/svg">
<g clip-path="url(#clip0)">
<path d="M10.595 0.00396729L21.1881 5.99611V17.9843L10.595 23.9764L0.00189209 17.9843V5.99611L10.595 0.00396729Z" fill="white"/>
<path d="M19.2973 17.5686L10.9468 22.2974V18.6199L16.1514 15.7538L19.2973 17.5686ZM19.8689 17.0529V7.17138L16.815 8.93414V15.29L19.8689 17.0529V17.0529ZM1.86065 17.5685L10.2112 22.2935V18.6159L5.00663 15.7538L1.86065 17.5686V17.5685ZM1.28903 17.0529V7.17138L4.34307 8.93414V15.29L1.28903 17.0529V17.0529ZM1.64489 6.53182L10.2112 1.68688V5.24467L4.72285 8.26263L4.67882 8.28663L1.64489 6.53174V6.53182ZM19.5092 6.53182L10.9468 1.6868V5.24459L16.4312 8.26652L16.4752 8.29052L19.5092 6.53165V6.53182Z" fill="#8ED6FB"/>
<path d="M10.2112 17.7804L5.07855 14.9542V9.3619L10.2112 12.324V17.7804V17.7804ZM10.9468 17.7804L16.0795 14.9583V9.3619L10.9468 12.324V17.7804V17.7804ZM5.42233 8.71431L10.579 5.88016L15.7316 8.71431L10.579 11.6884L5.42233 8.71431V8.71431Z" fill="#1C78C0"/>
</g>
<defs>
<clipPath id="clip0">
<rect width="21.19" height="24" fill="white"/>
</clipPath>
</defs>
</svg>
