<svg width="75" height="75" viewBox="0 0 26 24" fill="none" xmlns="http://www.w3.org/2000/svg">
<g clip-path="url(#clip0)">
<path d="M17.4521 16.695C18.3813 16.5989 19.0863 15.7978 19.0542 14.8364C19.0223 13.8751 18.2211 13.1061 17.2598 13.1061H17.1958C16.2024 13.1381 15.4334 13.9712 15.4654 14.9646C15.4975 15.4453 15.6897 15.8618 15.9781 16.1502C14.8887 18.2972 13.2224 19.8674 10.7231 21.1812C9.02479 22.0784 7.26246 22.3989 5.50013 22.1746C4.05816 21.9823 2.93666 21.3415 2.23161 20.2839C1.2063 18.7138 1.1102 17.0154 1.97538 15.3171C2.58423 14.0994 3.54541 13.2022 4.15426 12.7535C4.0261 12.337 3.8338 11.632 3.73771 11.1194C-0.908556 14.484 -0.427868 19.0343 0.982034 21.1812C2.03941 22.7835 4.18633 23.7768 6.55751 23.7768C7.19833 23.7768 7.83915 23.7127 8.48007 23.5526C12.5816 22.7514 15.6898 20.316 17.4521 16.695V16.695ZM23.0917 12.7216C20.6564 9.86961 17.0676 8.29948 12.9661 8.29948H12.4534C12.165 7.72269 11.5562 7.3381 10.8833 7.3381H10.8192C9.82594 7.37016 9.05695 8.20328 9.08892 9.19672C9.12098 10.158 9.92203 10.9271 10.8833 10.9271H10.9473C11.6523 10.895 12.2611 10.4464 12.5175 9.83754H13.0943C15.5296 9.83754 17.8366 10.5425 19.9195 11.9204C21.5216 12.9779 22.6752 14.3558 23.316 16.0221C23.8607 17.3679 23.8287 18.6817 23.2519 19.8033C22.3547 21.5016 20.8487 22.431 18.862 22.431C17.5803 22.431 16.3627 22.0464 15.7218 21.758C15.3693 22.0784 14.7284 22.5911 14.2798 22.9116C15.6577 23.5525 17.0676 23.905 18.4134 23.905C21.4895 23.905 23.7646 22.2066 24.6298 20.5083C25.559 18.6497 25.4949 15.4453 23.0917 12.7216V12.7216ZM6.81384 17.2397C6.8459 18.201 7.64695 18.97 8.60823 18.97H8.67236C9.66571 18.9381 10.4347 18.1049 10.4026 17.1115C10.3707 16.1501 9.56951 15.3811 8.60823 15.3811H8.5442C8.48007 15.3811 8.38387 15.3811 8.31994 15.4131C7.00613 13.2341 6.46141 10.863 6.65371 8.29938C6.78177 6.37672 7.42269 4.71039 8.5442 3.33246C9.47341 2.14682 11.2678 1.57003 12.4855 1.53807C15.882 1.47393 17.3239 5.70374 17.4201 7.40213C17.8366 7.49823 18.5416 7.72259 19.0223 7.88282C18.6377 2.69174 15.4334 0 12.3573 0C9.47341 0 6.81384 2.08289 5.75636 5.15911C4.28243 9.26075 5.24371 13.2022 7.0381 16.3105C6.87797 16.5347 6.78177 16.8872 6.81384 17.2398V17.2397Z" fill="#764ABC"/>
</g>
<defs>
<clipPath id="clip0">
<rect width="25.19" height="24" fill="white"/>
</clipPath>
</defs>
</svg>
