<svg width="75" height="75" viewBox="0 0 24 24" fill="none" xmlns="http://www.w3.org/2000/svg">
<path d="M20.625 4.125H13.65L12.075 7.275H3.3V19.875H22.2V4.125H20.625ZM20.625 7.275H14.475L15.3 5.7H20.625V7.275Z" fill="#BF558A"/>
<path fill-rule="evenodd" clip-rule="evenodd" d="M15.375 7.5C16.9325 7.5 18.4551 7.96186 19.7501 8.82718C21.0452 9.69249 22.0545 10.9224 22.6506 12.3614C23.2466 13.8003 23.4025 15.3837 23.0987 16.9113C22.7948 18.4389 22.0448 19.8421 20.9435 20.9435C19.8421 22.0448 18.4389 22.7948 16.9113 23.0987C15.3837 23.4025 13.8003 23.2466 12.3614 22.6506C10.9224 22.0545 9.69249 21.0452 8.82718 19.7501C7.96186 18.4551 7.5 16.9325 7.5 15.375C7.5 13.2864 8.32968 11.2834 9.80653 9.80653C11.2834 8.32968 13.2864 7.5 15.375 7.5V7.5Z" fill="#CC6699"/>
<path d="M20.3145 10.8705C19.9582 9.47175 17.6385 9.012 15.444 9.792C14.0694 10.2538 12.7994 10.9822 11.7067 11.9355C10.4977 13.0665 10.305 14.0505 10.3845 14.4615C10.665 15.9128 12.6532 16.8615 13.47 17.565V17.5695C13.2292 17.688 11.4652 18.5805 11.052 19.4933C10.6162 20.4563 11.121 21.1433 11.4555 21.24C11.9578 21.3609 12.4854 21.3215 12.9642 21.1274C13.443 20.9333 13.8491 20.5943 14.1255 20.1578C14.3539 19.8039 14.4968 19.4017 14.5429 18.9831C14.589 18.5644 14.537 18.1408 14.391 17.7458C14.7846 17.6458 15.1938 17.6224 15.5962 17.6768C16.9777 17.838 17.2462 18.7005 17.1967 19.0613C17.1724 19.19 17.1207 19.312 17.045 19.4189C16.9692 19.5258 16.8714 19.6151 16.758 19.6808C16.6612 19.7408 16.6312 19.7618 16.6395 19.806C16.6515 19.8705 16.6957 19.8683 16.779 19.854C16.9863 19.7884 17.1689 19.6616 17.3028 19.4902C17.4366 19.3189 17.5155 19.111 17.529 18.894C17.562 18.048 16.7512 17.1015 15.3157 17.1263C14.8989 17.1136 14.4828 17.1699 14.0842 17.2928C14.0644 17.2699 14.0442 17.2474 14.0235 17.2253C13.1362 16.2788 11.4952 15.6083 11.565 14.3355C11.5905 13.8728 11.751 12.654 14.715 11.1758C17.145 9.96525 19.0905 10.2983 19.4265 11.0363C19.9065 12.0915 18.387 14.052 15.8632 14.3363C15.5843 14.393 15.2962 14.3862 15.0203 14.3163C14.7444 14.2465 14.4878 14.1154 14.2695 13.9328C14.1367 13.7865 14.1195 13.7828 14.0677 13.8075C13.9875 13.8525 14.0385 13.9815 14.0677 14.058C14.1643 14.2322 14.2948 14.3854 14.4514 14.5085C14.608 14.6317 14.7876 14.7223 14.9797 14.775C15.972 14.9907 17.007 14.8883 17.9377 14.4825C19.4715 13.8908 20.6655 12.246 20.3145 10.8705V10.8705ZM13.8097 18C13.9214 18.3852 13.9157 18.7949 13.7932 19.1768C13.7802 19.2168 13.7657 19.256 13.7497 19.2945C13.7337 19.333 13.7167 19.3713 13.6987 19.4093C13.6041 19.6029 13.4816 19.7815 13.335 19.9395C12.8775 20.439 12.2385 20.6273 11.964 20.4683C11.6677 20.2965 11.814 19.593 12.3465 19.032C12.7542 18.6288 13.2242 18.294 13.7385 18.0405L13.8097 18Z" fill="white"/>
</svg>
